<svg width="217" height="286" viewBox="0 0 217 286" fill="none" xmlns="http://www.w3.org/2000/svg">
<g filter="url(#filter0_d_2_12165)">
<path d="M106.772 178.615C139.628 178.615 166.263 151.928 166.263 119.007C166.263 86.0861 139.628 59.3984 106.772 59.3984C73.9158 59.3984 47.2808 86.0861 47.2808 119.007C47.2808 151.928 73.9158 178.615 106.772 178.615Z" fill="#FFC1C1"/>
<path d="M187.658 195.453H29.5903V191.874H187.658C187.743 191.874 187.827 191.891 187.905 191.923C187.983 191.956 188.055 192.003 188.115 192.064C188.174 192.124 188.222 192.195 188.255 192.274C188.287 192.352 188.304 192.436 188.304 192.521V194.806C188.304 194.978 188.236 195.142 188.115 195.264C187.993 195.385 187.829 195.453 187.658 195.453Z" fill="#425AC2"/>
<path d="M30.8827 192.534H29.5776V277.37H30.8827V192.534Z" fill="#425AC2"/>
<path d="M187.658 192.534H187.645C187.288 192.534 186.999 192.824 186.999 193.181V276.723C186.999 277.08 187.288 277.37 187.645 277.37H187.658C188.015 277.37 188.304 277.08 188.304 276.723V193.181C188.304 192.824 188.015 192.534 187.658 192.534Z" fill="#425AC2"/>
<path d="M95.9631 53.6652C95.5431 54.0846 94.9743 54.3201 94.3813 54.3201C93.7883 54.3201 93.2194 54.0846 92.7994 53.6652C92.3808 53.2443 92.1458 52.6743 92.1458 52.0802C92.1458 51.486 92.3808 50.9161 92.7994 50.4952L96.5695 46.7309C96.7746 46.5204 97.0196 46.3532 97.2901 46.239C97.5606 46.1248 97.8512 46.0659 98.1448 46.0659C98.4383 46.0659 98.7289 46.1248 98.9995 46.239C99.27 46.3532 99.515 46.5204 99.72 46.7309C99.9301 46.9363 100.097 47.1818 100.211 47.4529C100.325 47.7239 100.384 48.0151 100.384 48.3093C100.384 48.6034 100.325 48.8945 100.211 49.1656C100.097 49.4367 99.9301 49.6822 99.72 49.8877L95.9631 53.6652Z" fill="#8EA8DD"/>
<path d="M122.631 53.6652C123.051 54.0847 123.62 54.3202 124.213 54.3202C124.806 54.3202 125.375 54.0847 125.795 53.6652C126.213 53.2444 126.448 52.6744 126.448 52.0802C126.448 51.4861 126.213 50.9162 125.795 50.4953L122.025 46.731C121.819 46.5201 121.572 46.3526 121.301 46.2382C121.029 46.1239 120.737 46.0649 120.443 46.0649C120.148 46.0649 119.857 46.1239 119.585 46.2382C119.313 46.3526 119.067 46.5201 118.861 46.731C118.443 47.1496 118.208 47.7173 118.208 48.3093C118.208 48.9013 118.443 49.4691 118.861 49.8877L122.631 53.6652Z" fill="#8EA8DD"/>
<path d="M98.5334 11.1873C97.8847 10.2231 97.536 9.08773 97.5315 7.9249C97.5315 3.5662 102.633 0 108.895 0C115.156 0 120.258 3.53979 120.258 7.9249C120.252 8.99659 119.956 10.0466 119.401 10.9628L117.727 9.97217C118.107 9.35685 118.312 8.6488 118.32 7.9249C118.32 4.6889 114.009 1.96802 108.895 1.96802C103.78 1.96802 99.4693 4.6889 99.4693 7.9249C99.4779 8.71343 99.7212 9.48144 100.168 10.1307L98.5334 11.1873Z" fill="#A4B8EA"/>
<path d="M120.158 9.64339L116.3 15.6689L124.033 20.6397L127.891 14.6142L120.158 9.64339Z" fill="#FFC1C1"/>
<path d="M116.87 11.0291C117.044 10.6615 117.247 10.3082 117.476 9.97243C118.556 8.50643 120.167 7.52332 121.963 7.23419C123.758 6.94507 125.595 7.37301 127.08 8.42611C128.564 9.4792 129.577 11.0735 129.901 12.8665C130.225 14.6596 129.834 16.5085 128.813 18.0162C128.578 18.3481 128.313 18.6577 128.022 18.9408L116.87 11.0291Z" fill="#FE958E"/>
<path d="M97.7108 9.99161L89.9773 14.9624L93.8351 20.988L101.569 16.0172L97.7108 9.99161Z" fill="#FFC1C1"/>
<path d="M124.045 48.2091C132.293 39.9458 132.293 26.5484 124.045 18.2851C115.798 10.0218 102.427 10.0218 94.1804 18.2851C85.9333 26.5484 85.9333 39.9458 94.1804 48.2091C102.427 56.4724 115.798 56.4724 124.045 48.2091Z" fill="#FE958E"/>
<path d="M113.177 50.3541C122.612 48.1089 128.444 38.6252 126.203 29.1717C123.962 19.7181 114.497 13.8746 105.062 16.1198C95.6273 18.365 89.7953 27.8487 92.036 37.3022C94.2768 46.7557 103.742 52.5993 113.177 50.3541Z" fill="#FEE2E3"/>
<path d="M109.778 17.9237C109.78 18.0549 109.744 18.1838 109.673 18.2941C109.602 18.4045 109.5 18.4912 109.38 18.5432C109.26 18.5952 109.127 18.6102 108.998 18.5862C108.87 18.5622 108.751 18.5004 108.658 18.4086C108.564 18.3168 108.5 18.1991 108.473 18.0707C108.447 17.9422 108.459 17.8088 108.509 17.6873C108.558 17.5659 108.643 17.4619 108.751 17.3888C108.86 17.3156 108.988 17.2765 109.119 17.2765C109.205 17.2747 109.29 17.2902 109.37 17.3219C109.45 17.3537 109.523 17.4011 109.584 17.4613C109.645 17.5216 109.694 17.5936 109.727 17.673C109.761 17.7523 109.778 17.8376 109.778 17.9237Z" fill="#425AC2"/>
<path d="M102.04 19.6536C102.085 19.7279 102.114 19.8103 102.126 19.8961C102.138 19.9819 102.133 20.0693 102.111 20.153C102.089 20.2368 102.05 20.3152 101.997 20.3837C101.944 20.4522 101.878 20.5094 101.803 20.5518C101.653 20.6343 101.478 20.6557 101.313 20.6114C101.148 20.567 101.007 20.4605 100.919 20.3141C100.837 20.1644 100.816 19.9887 100.86 19.8236C100.904 19.6586 101.011 19.5172 101.157 19.4291C101.304 19.342 101.479 19.3167 101.645 19.3587C101.81 19.4008 101.952 19.5068 102.04 19.6536Z" fill="#425AC2"/>
<path d="M96.2135 25.0163C96.2885 25.0574 96.3544 25.1133 96.4072 25.1806C96.46 25.2479 96.4987 25.3252 96.5208 25.4079C96.543 25.4906 96.5483 25.577 96.5362 25.6618C96.5242 25.7465 96.4951 25.828 96.4508 25.9012C96.3629 26.0476 96.2217 26.1542 96.0571 26.1986C95.8924 26.2429 95.7169 26.2215 95.5676 26.139C95.494 26.0965 95.4295 26.0399 95.3778 25.9724C95.326 25.9049 95.2881 25.8279 95.266 25.7457C95.244 25.6636 95.2383 25.5778 95.2494 25.4935C95.2604 25.4091 95.2879 25.3277 95.3303 25.254C95.3727 25.1803 95.4292 25.1157 95.4965 25.0638C95.5639 25.012 95.6407 24.974 95.7227 24.9519C95.8048 24.9298 95.8903 24.9241 95.9745 24.9352C96.0587 24.9462 96.1399 24.9738 96.2135 25.0163Z" fill="#425AC2"/>
<path d="M93.841 32.5845C93.9687 32.5845 94.0936 32.6224 94.1998 32.6935C94.306 32.7647 94.3888 32.8657 94.4377 32.984C94.4866 33.1023 94.4994 33.2324 94.4745 33.3579C94.4496 33.4835 94.388 33.5988 94.2977 33.6893C94.2074 33.7798 94.0923 33.8415 93.967 33.8665C93.8417 33.8914 93.7118 33.8786 93.5938 33.8296C93.4757 33.7806 93.3749 33.6977 93.3039 33.5912C93.233 33.4848 93.1951 33.3597 93.1951 33.2317C93.1951 33.06 93.2631 32.8954 93.3842 32.774C93.5054 32.6527 93.6697 32.5845 93.841 32.5845Z" fill="#425AC2"/>
<path d="M95.568 40.3244C95.7174 40.2418 95.8928 40.2205 96.0575 40.2648C96.2222 40.3091 96.3633 40.4157 96.4513 40.5621C96.5149 40.6731 96.5443 40.8004 96.5357 40.928C96.5272 41.0557 96.4811 41.1779 96.4032 41.2793C96.3254 41.3807 96.2193 41.4568 96.0983 41.4978C95.9774 41.5388 95.847 41.543 95.7237 41.5098C95.6004 41.4766 95.4896 41.4075 95.4055 41.3113C95.3213 41.215 95.2675 41.096 95.2509 40.9691C95.2342 40.8423 95.2555 40.7134 95.3119 40.5986C95.3684 40.4838 95.4575 40.3884 95.568 40.3244Z" fill="#425AC2"/>
<path d="M100.919 46.1627C101.007 46.0163 101.148 45.9097 101.313 45.8654C101.478 45.8211 101.653 45.8424 101.803 45.925C101.953 46.0108 102.063 46.1529 102.109 46.3201C102.155 46.4873 102.132 46.6659 102.047 46.8165C101.961 46.9671 101.819 47.0775 101.652 47.1233C101.485 47.1692 101.307 47.1467 101.157 47.0608C101.01 46.9703 100.903 46.8265 100.859 46.6593C100.815 46.4921 100.836 46.3143 100.919 46.1627Z" fill="#425AC2"/>
<path d="M108.473 48.5402C108.47 48.4085 108.507 48.279 108.578 48.1684C108.65 48.0578 108.752 47.9711 108.873 47.9195C108.994 47.8679 109.128 47.8537 109.257 47.8788C109.386 47.9038 109.505 47.967 109.598 48.0601C109.691 48.1533 109.754 48.2721 109.779 48.4015C109.804 48.5308 109.789 48.6647 109.738 48.7859C109.686 48.907 109.6 49.01 109.49 49.0816C109.379 49.1531 109.25 49.19 109.118 49.1874C108.947 49.1874 108.783 49.1192 108.662 48.9978C108.541 48.8765 108.473 48.7118 108.473 48.5402Z" fill="#425AC2"/>
<path d="M116.21 46.8231C116.166 46.7489 116.136 46.6664 116.124 46.5806C116.112 46.4948 116.117 46.4075 116.139 46.3237C116.161 46.24 116.2 46.1615 116.253 46.093C116.306 46.0245 116.372 45.9674 116.447 45.925C116.597 45.8424 116.772 45.8211 116.937 45.8654C117.102 45.9097 117.243 46.0163 117.331 46.1627C117.414 46.3143 117.435 46.4921 117.391 46.6593C117.347 46.8265 117.24 46.9703 117.093 47.0608C116.944 47.1434 116.769 47.1648 116.604 47.1204C116.439 47.0761 116.298 46.9695 116.21 46.8231Z" fill="#425AC2"/>
<path d="M122.038 41.4476C121.963 41.4065 121.897 41.3506 121.844 41.2833C121.791 41.2159 121.753 41.1386 121.731 41.0559C121.708 40.9732 121.703 40.8869 121.715 40.8021C121.727 40.7173 121.756 40.6358 121.801 40.5626C121.843 40.4889 121.9 40.4243 121.967 40.3724C122.034 40.3206 122.111 40.2826 122.193 40.2605C122.275 40.2384 122.361 40.2327 122.445 40.2438C122.529 40.2548 122.61 40.2824 122.684 40.3249C122.757 40.3674 122.822 40.424 122.874 40.4914C122.925 40.5589 122.963 40.6359 122.985 40.7181C123.008 40.8003 123.013 40.886 123.002 40.9704C122.991 41.0547 122.964 41.1361 122.921 41.2098C122.88 41.285 122.824 41.3509 122.757 41.4039C122.69 41.4568 122.613 41.4955 122.53 41.5178C122.448 41.54 122.362 41.5452 122.277 41.5332C122.192 41.5211 122.111 41.492 122.038 41.4476Z" fill="#425AC2"/>
<path d="M124.411 33.8789C124.768 33.8789 125.057 33.5891 125.057 33.2317C125.057 32.8742 124.768 32.5845 124.411 32.5845C124.054 32.5845 123.765 32.8742 123.765 33.2317C123.765 33.5891 124.054 33.8789 124.411 33.8789Z" fill="#425AC2"/>
<path d="M122.684 26.139C122.534 26.2215 122.359 26.2429 122.194 26.1986C122.029 26.1542 121.888 26.0476 121.8 25.9012C121.715 25.7523 121.692 25.5755 121.736 25.4095C121.781 25.2436 121.889 25.1021 122.038 25.0163C122.186 24.9304 122.363 24.9073 122.528 24.9519C122.694 24.9965 122.835 25.1052 122.921 25.254C122.963 25.3277 122.991 25.4091 123.002 25.4935C123.013 25.5779 123.007 25.6636 122.985 25.7458C122.963 25.828 122.925 25.9051 122.874 25.9725C122.822 26.04 122.757 26.0966 122.684 26.139Z" fill="#425AC2"/>
<path d="M117.331 20.3014C117.243 20.4478 117.102 20.5543 116.937 20.5987C116.772 20.643 116.597 20.6217 116.447 20.5391C116.372 20.4967 116.306 20.4396 116.253 20.3711C116.2 20.3026 116.161 20.2241 116.139 20.1403C116.117 20.0566 116.112 19.9692 116.124 19.8834C116.136 19.7977 116.166 19.7152 116.21 19.641C116.298 19.4942 116.44 19.3881 116.606 19.346C116.771 19.304 116.946 19.3293 117.093 19.4164C117.239 19.5045 117.346 19.6459 117.39 19.8109C117.434 19.976 117.413 20.1518 117.331 20.3014Z" fill="#425AC2"/>
<path d="M102.071 28.2669L101.441 29.457L108.579 33.2519L109.209 32.0618L102.071 28.2669Z" fill="#425AC2"/>
<path d="M119.756 26.5865L109.113 32.4663L109.596 33.3454L120.24 27.4656L119.756 26.5865Z" fill="#425AC2"/>
<path d="M112.204 33.2321C112.22 33.8449 112.053 34.4484 111.725 34.9661C111.398 35.4837 110.924 35.8921 110.364 36.1393C109.805 36.3865 109.184 36.4614 108.582 36.3544C107.98 36.2474 107.423 35.9634 106.982 35.5385C106.541 35.1135 106.236 34.5669 106.106 33.9679C105.976 33.369 106.027 32.7449 106.252 32.1749C106.477 31.6049 106.865 31.1148 107.369 30.7668C107.873 30.4188 108.468 30.2287 109.08 30.2207C109.892 30.2065 110.677 30.5155 111.263 31.0799C111.848 31.6443 112.187 32.4182 112.204 33.2321Z" fill="#FE958E"/>
<path d="M101.025 11.3193C100.854 10.9473 100.646 10.5933 100.405 10.2627C99.3407 8.7581 97.7232 7.73892 95.9087 7.42929C94.0941 7.11967 92.2311 7.54496 90.7295 8.61163C89.2279 9.6783 88.2108 11.299 87.9018 13.1171C87.5927 14.9352 88.0172 16.8019 89.0818 18.3064C89.316 18.6349 89.5761 18.944 89.8595 19.231L101.025 11.3193Z" fill="#FE958E"/>
<path d="M7.063 90.7275C6.79227 90.8393 6.5021 90.8962 6.20929 90.8948C5.91648 90.8935 5.62684 90.834 5.35714 90.7197C5.08744 90.6055 4.84304 90.4388 4.63805 90.2293C4.43307 90.0198 4.27157 89.7716 4.16293 89.4992C3.94132 88.9509 3.94594 88.3369 4.1758 87.7921C4.40567 87.2473 4.84197 86.8161 5.38886 86.5934L10.319 84.5725C10.8684 84.3536 11.4816 84.3597 12.0265 84.5894C12.5714 84.8192 13.0044 85.2542 13.2323 85.8009C13.4543 86.351 13.4501 86.9669 13.2204 87.5139C12.9906 88.0608 12.5542 88.4944 12.0063 88.7199L7.063 90.7275Z" fill="#8EA8DD"/>
<path d="M31.6473 101.109C31.7573 101.382 31.9201 101.63 32.1263 101.84C32.3326 102.05 32.5781 102.216 32.8489 102.33C33.1196 102.445 33.4103 102.504 33.704 102.505C33.9978 102.506 34.2889 102.449 34.5606 102.337C35.1084 102.112 35.5449 101.678 35.7746 101.131C36.0043 100.584 36.0086 99.9685 35.7865 99.4184L33.7696 94.4785C33.5473 93.9305 33.117 93.4934 32.5733 93.2631C32.0295 93.0327 31.4167 93.0281 30.8696 93.2502C30.5972 93.3604 30.3492 93.5235 30.14 93.7302C29.9308 93.9368 29.7644 94.1828 29.6505 94.4541C29.5365 94.7254 29.4773 95.0166 29.4761 95.311C29.4749 95.6053 29.5319 95.897 29.6436 96.1692L31.6473 101.109Z" fill="#8EA8DD"/>
<path d="M25.9121 52.5951C25.6837 51.4504 25.8031 50.2634 26.2548 49.1874C27.9421 45.2249 34.0059 43.9041 39.7797 46.3344C45.5535 48.7647 48.8886 54.0216 47.2013 58.0369C46.7801 59.0259 46.0962 59.8802 45.224 60.5068L44.0639 58.935C44.6445 58.5145 45.1001 57.9438 45.3821 57.284C46.7004 54.3121 43.708 50.112 39.002 48.1307C34.2959 46.1495 29.2603 46.9816 28.0212 49.9535C27.7205 50.6803 27.6424 51.4803 27.7971 52.2517L25.9121 52.5951Z" fill="#A4B8EA"/>
<path d="M46.4191 59.6285L40.5288 63.6802L45.729 71.2699L51.6193 67.2182L46.4191 59.6285Z" fill="#425AC2"/>
<path d="M42.8528 59.5817C43.155 59.3061 43.4815 59.0585 43.8283 58.842C44.6463 58.323 45.5637 57.981 46.5214 57.8381C47.4791 57.6952 48.456 57.7545 49.3895 58.0121C50.323 58.2698 51.1925 58.7201 51.9421 59.3342C52.6917 59.9483 53.3049 60.7127 53.7423 61.5782C54.1797 62.4437 54.4318 63.3913 54.4822 64.3601C54.5327 65.329 54.3805 66.2978 54.0353 67.2042C53.6901 68.1107 53.1597 68.9348 52.478 69.6237C51.7962 70.3127 50.9783 70.8512 50.0766 71.2048L42.8528 59.5817Z" fill="#FFC1C1"/>
<path d="M25.63 51.1406L16.5771 52.7139L17.7982 59.7674L26.851 58.1941L25.63 51.1406Z" fill="#425AC2"/>
<path d="M46.5827 85.2445C44.9566 89.0896 42.23 92.3657 38.7471 94.6594C35.2642 96.953 31.1812 98.1614 27.0135 98.1318C22.8458 98.1023 18.7803 96.8361 15.3301 94.4933C11.88 92.1505 9.19995 88.836 7.62832 84.9683C6.05669 81.1005 5.66394 76.8529 6.49966 72.7617C7.33538 68.6705 9.36211 64.9191 12.324 61.9811C15.2858 59.0431 19.05 57.0501 23.1414 56.2539C27.2327 55.4577 31.4678 55.8939 35.312 57.5074C37.8734 58.5825 40.1976 60.1538 42.1514 62.1312C44.1052 64.1086 45.6501 66.4532 46.6972 69.0303C47.7444 71.6074 48.2734 74.3664 48.2537 77.1488C48.2341 79.9313 47.6662 82.6825 46.5827 85.2445Z" fill="#FFC1C1"/>
<path d="M33.6968 93.3492C42.6855 89.703 47.0224 79.4461 43.3834 70.4397C39.7444 61.4332 29.5076 57.0878 20.5189 60.734C11.5302 64.3801 7.19339 74.6371 10.8324 83.6435C14.4713 92.65 24.7081 96.9953 33.6968 93.3492Z" fill="#FEE2E3"/>
<path d="M33.6506 63.1618C33.6178 63.2407 33.5697 63.3124 33.5091 63.3727C33.4486 63.433 33.3768 63.4807 33.2979 63.5132C33.2189 63.5458 33.1343 63.5623 33.049 63.5621C32.9636 63.5619 32.8792 63.5448 32.8004 63.5118C32.7216 63.4788 32.6501 63.4307 32.5899 63.37C32.5298 63.3094 32.4821 63.2374 32.4496 63.1583C32.4172 63.0792 32.4006 62.9945 32.4009 62.909C32.4011 62.8235 32.4182 62.7388 32.4511 62.6599C32.5206 62.5017 32.6493 62.3771 32.8095 62.3129C32.9697 62.2487 33.1487 62.2499 33.3079 62.3165C33.4649 62.3834 33.589 62.5099 33.6532 62.6683C33.7175 62.8267 33.7165 63.0041 33.6506 63.1618Z" fill="#425AC2"/>
<path d="M25.8595 61.7483C25.8705 61.8334 25.8646 61.9199 25.842 62.0026C25.8194 62.0854 25.7806 62.1629 25.7278 62.2305C25.6751 62.2981 25.6095 62.3545 25.5347 62.3964C25.46 62.4384 25.3778 62.465 25.2927 62.4748C25.1231 62.4973 24.9516 62.4516 24.8157 62.3476C24.6798 62.2436 24.5906 62.0898 24.5676 61.92C24.5566 61.835 24.5626 61.7485 24.5852 61.6657C24.6078 61.583 24.6466 61.5056 24.6993 61.438C24.7521 61.3704 24.8177 61.3139 24.8924 61.272C24.9671 61.23 25.0494 61.2034 25.1345 61.1936C25.304 61.1711 25.4755 61.2168 25.6114 61.3208C25.7474 61.4248 25.8366 61.5785 25.8595 61.7483Z" fill="#425AC2"/>
<path d="M18.3995 64.4303C18.4535 64.4971 18.4934 64.5742 18.5167 64.6569C18.5401 64.7397 18.5464 64.8263 18.5353 64.9115C18.5242 64.9968 18.4959 65.0789 18.4522 65.1528C18.4084 65.2268 18.3501 65.291 18.2808 65.3417C18.2126 65.3934 18.1349 65.431 18.0521 65.4523C17.9693 65.4737 17.8831 65.4783 17.7985 65.466C17.7139 65.4538 17.6325 65.4248 17.5592 65.3807C17.4859 65.3367 17.422 65.2785 17.3712 65.2096C17.32 65.1424 17.2827 65.0655 17.2616 64.9836C17.2405 64.9017 17.2359 64.8164 17.2482 64.7327C17.2605 64.649 17.2894 64.5686 17.3331 64.4963C17.3769 64.4239 17.4347 64.3611 17.5031 64.3115C17.5686 64.2576 17.6445 64.2179 17.726 64.1946C17.8075 64.1714 17.8929 64.1651 17.977 64.1763C18.061 64.1874 18.1418 64.2157 18.2145 64.2594C18.2872 64.3031 18.3501 64.3613 18.3995 64.4303Z" fill="#425AC2"/>
<path d="M13.2844 70.4799C13.4424 70.5496 13.5667 70.6785 13.6308 70.839C13.6949 70.9995 13.6936 71.1788 13.6272 71.3384C13.5603 71.4957 13.4341 71.6201 13.276 71.6844C13.1179 71.7488 12.9409 71.7478 12.7835 71.6818C12.7046 71.6501 12.633 71.6028 12.5727 71.5427C12.5125 71.4826 12.465 71.411 12.433 71.3321C12.401 71.2532 12.3852 71.1687 12.3866 71.0835C12.3879 70.9984 12.4063 70.9144 12.4408 70.8365C12.4726 70.7575 12.5198 70.6855 12.5795 70.6247C12.6392 70.564 12.7102 70.5157 12.7886 70.4825C12.867 70.4494 12.9512 70.4321 13.0363 70.4316C13.1214 70.4312 13.2057 70.4476 13.2844 70.4799Z" fill="#425AC2"/>
<path d="M11.8749 78.2847C11.9598 78.2736 12.0461 78.2796 12.1287 78.3022C12.2113 78.3249 12.2886 78.3637 12.356 78.4166C12.4235 78.4694 12.4798 78.5352 12.5217 78.6101C12.5635 78.6849 12.5901 78.7674 12.5999 78.8526C12.6144 78.9794 12.5912 79.1076 12.5333 79.2212C12.4753 79.3348 12.385 79.4287 12.274 79.4911C12.1629 79.5535 12.0359 79.5815 11.9089 79.5718C11.7819 79.562 11.6607 79.5149 11.5603 79.4363C11.46 79.3578 11.3851 79.2512 11.3451 79.1301C11.305 79.009 11.3016 78.8787 11.3352 78.7557C11.3688 78.6326 11.4379 78.5222 11.534 78.4384C11.63 78.3546 11.7486 78.3012 11.8749 78.2847Z" fill="#425AC2"/>
<path d="M14.5497 85.7615C14.6166 85.7037 14.6946 85.6603 14.7788 85.6339C14.8631 85.6075 14.9519 85.5988 15.0397 85.6081C15.1275 85.6175 15.2125 85.6448 15.2893 85.6883C15.3662 85.7319 15.4333 85.7907 15.4866 85.8613C15.5398 85.9318 15.5781 86.0126 15.599 86.0985C15.6199 86.1845 15.623 86.2738 15.6081 86.361C15.5932 86.4482 15.5606 86.5314 15.5123 86.6055C15.464 86.6796 15.4011 86.7429 15.3275 86.7917C15.1901 86.8941 15.0184 86.939 14.8486 86.9168C14.6789 86.8946 14.5244 86.8071 14.4179 86.6728C14.3663 86.6045 14.3288 86.5266 14.3075 86.4437C14.2862 86.3607 14.2815 86.2743 14.2938 86.1896C14.306 86.1048 14.335 86.0233 14.3789 85.9498C14.4228 85.8763 14.4809 85.8123 14.5497 85.7615Z" fill="#425AC2"/>
<path d="M20.5873 90.8856C20.619 90.8066 20.6662 90.7348 20.7262 90.6744C20.7861 90.6141 20.8576 90.5664 20.9364 90.5344C21.0151 90.5023 21.0995 90.4865 21.1845 90.4879C21.2694 90.4892 21.3533 90.5077 21.431 90.5422C21.549 90.5917 21.6496 90.6751 21.7202 90.782C21.7908 90.8889 21.8282 91.0144 21.8275 91.1426C21.8268 91.2708 21.7882 91.3959 21.7165 91.502C21.6447 91.6082 21.5432 91.6906 21.4247 91.7388C21.3062 91.7871 21.176 91.7989 21.0508 91.773C20.9255 91.747 20.8107 91.6844 20.721 91.593C20.6313 91.5016 20.5707 91.3856 20.5469 91.2597C20.5231 91.1337 20.5372 91.0035 20.5873 90.8856Z" fill="#425AC2"/>
<path d="M28.3785 92.2992C28.364 92.1724 28.3872 92.0442 28.4451 91.9306C28.5031 91.817 28.5933 91.7231 28.7044 91.6607C28.8155 91.5983 28.9425 91.5703 29.0695 91.58C29.1964 91.5897 29.3177 91.6369 29.418 91.7154C29.5184 91.794 29.5933 91.9006 29.6333 92.0217C29.6734 92.1428 29.6768 92.2731 29.6432 92.3961C29.6096 92.5192 29.5404 92.6296 29.4444 92.7134C29.3484 92.7972 29.2298 92.8506 29.1035 92.8671C29.0186 92.8782 28.9323 92.8722 28.8497 92.8496C28.7671 92.8269 28.6898 92.788 28.6224 92.7352C28.5549 92.6823 28.4986 92.6165 28.4567 92.5417C28.4148 92.4668 28.3883 92.3844 28.3785 92.2992Z" fill="#425AC2"/>
<path d="M35.8267 89.6577C35.7511 89.555 35.7075 89.4321 35.7014 89.3046C35.6953 89.1771 35.727 89.0506 35.7925 88.9411C35.858 88.8316 35.9543 88.7439 36.0694 88.6891C36.1845 88.6343 36.3132 88.6148 36.4393 88.6332C36.5654 88.6515 36.6832 88.7067 36.7781 88.792C36.8729 88.8773 36.9404 88.9887 36.9722 89.1124C37.0039 89.236 36.9985 89.3663 36.9565 89.4868C36.9145 89.6074 36.8379 89.7128 36.7363 89.7898C36.5974 89.8908 36.4246 89.9335 36.2547 89.9088C36.0849 89.8842 35.9313 89.7941 35.8267 89.6577Z" fill="#425AC2"/>
<path d="M40.9537 83.5688C40.7966 83.5016 40.6717 83.3758 40.6053 83.2182C40.5389 83.0605 40.5362 82.8831 40.5978 82.7235C40.6675 82.5651 40.7954 82.4397 40.9549 82.3733C41.1145 82.3069 41.2934 82.3046 41.4546 82.3669C41.6125 82.4365 41.7369 82.5654 41.8009 82.726C41.865 82.8865 41.8637 83.0658 41.7973 83.2254C41.7657 83.3044 41.7184 83.3762 41.6585 83.4365C41.5985 83.4969 41.527 83.5445 41.4483 83.5766C41.3695 83.6086 41.2852 83.6244 41.2002 83.6231C41.1152 83.6218 41.0314 83.6033 40.9537 83.5688Z" fill="#425AC2"/>
<path d="M42.3645 75.7631C42.2796 75.7742 42.1933 75.7682 42.1107 75.7456C42.0281 75.7229 41.9508 75.684 41.8833 75.6312C41.8159 75.5783 41.7596 75.5126 41.7177 75.4377C41.6758 75.3629 41.6492 75.2804 41.6395 75.1951C41.6249 75.0684 41.6481 74.9402 41.7061 74.8266C41.7641 74.713 41.8543 74.6191 41.9654 74.5567C42.0765 74.4944 42.2035 74.4663 42.3305 74.476C42.4575 74.4857 42.5787 74.5329 42.679 74.6114C42.7793 74.69 42.8542 74.7966 42.8943 74.9177C42.9344 75.0388 42.9378 75.1691 42.9042 75.2921C42.8706 75.4152 42.8014 75.5256 42.7054 75.6094C42.6094 75.6932 42.4908 75.7467 42.3645 75.7631Z" fill="#425AC2"/>
<path d="M39.6882 68.2998C39.5501 68.4032 39.3767 68.4473 39.2061 68.4226C39.0355 68.3978 38.8817 68.3062 38.7786 68.1678C38.6755 68.0294 38.6314 67.8557 38.6561 67.6847C38.6809 67.5138 38.7723 67.3598 38.9104 67.2564C39.0485 67.1531 39.2219 67.1089 39.3925 67.1337C39.5631 67.1585 39.7169 67.2501 39.82 67.3885C39.9231 67.5269 39.9672 67.7006 39.9425 67.8715C39.9177 68.0424 39.8263 68.1965 39.6882 68.2998Z" fill="#425AC2"/>
<path d="M22.5262 69.7733L21.4844 70.625L26.5927 76.8985L27.6345 76.0469L22.5262 69.7733Z" fill="#425AC2"/>
<path d="M39.4656 75.0679L27.3789 76.3472L27.4841 77.3454L39.5709 76.0661L39.4656 75.0679Z" fill="#425AC2"/>
<path d="M29.9869 78.219C29.7629 78.7927 29.373 79.2862 28.8672 79.6362C28.3614 79.9863 27.7627 80.1769 27.148 80.1837C26.5333 80.1905 25.9306 80.013 25.4172 79.6742C24.9039 79.3353 24.5033 78.8505 24.2668 78.2819C24.0304 77.7133 23.9689 77.0869 24.0902 76.4831C24.2116 75.8793 24.5102 75.3255 24.9479 74.8929C25.3855 74.4604 25.9421 74.1686 26.5464 74.0553C27.1506 73.9419 27.7749 74.012 28.3391 74.2566C29.0725 74.5746 29.6541 75.1653 29.9615 75.9044C30.2689 76.6435 30.278 77.4733 29.9869 78.219Z" fill="#FE958E"/>
<path d="M28.1401 53.6786C28.1264 53.2738 28.0734 52.8712 27.9819 52.4767C27.7863 51.5851 27.4173 50.7409 26.8961 49.9922C26.3748 49.2436 25.7115 48.6051 24.944 48.1133C24.1765 47.6215 23.3199 47.2859 22.423 47.1258C21.5261 46.9657 20.6065 46.9842 19.7167 47.1802C18.8269 47.3762 17.9843 47.7459 17.2371 48.2681C16.4899 48.7904 15.8527 49.455 15.3618 50.224C14.871 50.993 14.5361 51.8514 14.3763 52.75C14.2166 53.6487 14.235 54.5701 14.4306 55.4617C14.5136 55.8651 14.6372 56.2589 14.7997 56.6372L28.1401 53.6786Z" fill="#FFC1C1"/>
<path d="M209.568 90.7276C209.839 90.8395 210.13 90.8966 210.424 90.8954C210.718 90.8942 211.008 90.8348 211.279 90.7207C211.55 90.6065 211.796 90.4398 212.002 90.2302C212.208 90.0206 212.371 89.7721 212.481 89.4992C212.702 88.9509 212.698 88.337 212.468 87.7921C212.238 87.2473 211.802 86.8161 211.255 86.5934L206.325 84.5725C205.776 84.35 205.161 84.3543 204.615 84.5845C204.069 84.8147 203.636 85.252 203.411 85.8009C203.3 86.0731 203.243 86.3648 203.244 86.6591C203.245 86.9535 203.304 87.2447 203.418 87.516C203.532 87.7873 203.699 88.0333 203.908 88.2399C204.117 88.4466 204.365 88.6097 204.637 88.7199L209.568 90.7276Z" fill="#8EA8DD"/>
<path d="M184.996 101.11C184.771 101.659 184.338 102.096 183.792 102.326C183.246 102.556 182.632 102.561 182.082 102.338C181.81 102.228 181.562 102.065 181.353 101.858C181.144 101.651 180.977 101.405 180.863 101.134C180.749 100.863 180.69 100.572 180.689 100.277C180.688 99.9829 180.745 99.6912 180.857 99.419L182.86 94.4791C183.085 93.9302 183.518 93.4929 184.064 93.2627C184.61 93.0325 185.224 93.0282 185.773 93.2508C186.046 93.361 186.294 93.5241 186.503 93.7308C186.712 93.9374 186.879 94.1834 186.993 94.4547C187.106 94.726 187.166 95.0172 187.167 95.3116C187.168 95.6059 187.111 95.8976 186.999 96.1698L184.996 101.11Z" fill="#8EA8DD"/>
<path d="M190.729 52.5951C190.951 51.4501 190.832 50.265 190.387 49.1874C188.699 45.2249 182.635 43.9041 176.848 46.3344C171.062 48.7647 167.753 54.0216 169.44 58.0369C169.861 59.0259 170.545 59.8802 171.417 60.5068L172.564 58.935C171.984 58.5145 171.528 57.9438 171.246 57.284C169.994 54.3121 172.92 50.112 177.626 48.1307C182.332 46.1495 187.355 46.9816 188.607 49.9535C188.908 50.6803 188.986 51.4803 188.831 52.2517L190.729 52.5951Z" fill="#A4B8EA"/>
<path d="M170.204 59.6012L165.004 67.1909L170.894 71.2426L176.094 63.6529L170.204 59.6012Z" fill="#FE958E"/>
<path d="M173.79 59.5817C173.485 59.3092 173.159 59.0618 172.815 58.842C171.996 58.323 171.079 57.981 170.121 57.8381C169.164 57.6952 168.187 57.7545 167.253 58.0121C166.32 58.2698 165.45 58.7201 164.701 59.3342C163.951 59.9483 163.338 60.7127 162.901 61.5782C162.463 62.4437 162.211 63.3913 162.161 64.3601C162.11 65.329 162.262 66.2978 162.608 67.2042C162.953 68.1107 163.483 68.9348 164.165 69.6237C164.847 70.3127 165.665 70.8512 166.566 71.2048L173.79 59.5817Z" fill="#425AC2"/>
<path d="M192.202 48.5588L190.988 55.646L200.084 57.211L201.298 50.1238L192.202 48.5588Z" fill="#FE958E"/>
<path d="M197.416 96.6689C208.232 92.2969 213.463 79.9672 209.1 69.1298C204.736 58.2924 192.431 53.0512 181.615 57.4232C170.799 61.7952 165.568 74.1248 169.931 84.9622C174.295 95.7996 186.6 101.041 197.416 96.6689Z" fill="#425AC2"/>
<path d="M173.343 83.8581C174.692 87.0642 176.96 89.7974 179.86 91.7121C182.759 93.6267 186.161 94.6369 189.633 94.6149C193.106 94.5929 196.494 93.5397 199.369 91.5884C202.244 89.6371 204.477 86.8754 205.786 83.6525C207.095 80.4296 207.42 76.8902 206.722 73.4819C206.023 70.0736 204.331 66.9494 201.86 64.5044C199.389 62.0594 196.251 60.4034 192.841 59.7458C189.431 59.0882 185.902 59.4585 182.702 60.8099C180.577 61.7073 178.65 63.0154 177.029 64.6594C175.409 66.3035 174.127 68.2512 173.258 70.3915C172.389 72.5318 171.949 74.8227 171.964 77.1333C171.978 79.4439 172.447 81.729 173.343 83.8581Z" fill="#FEE2E3"/>
<path d="M182.992 63.1622C183.059 63.3196 183.184 63.4448 183.342 63.5113C183.499 63.5778 183.676 63.5805 183.835 63.5188C183.914 63.4859 183.986 63.4377 184.046 63.3771C184.106 63.3164 184.154 63.2445 184.186 63.1654C184.219 63.0862 184.235 63.0015 184.235 62.916C184.235 62.8304 184.218 62.7458 184.185 62.6669C184.152 62.588 184.104 62.5163 184.043 62.456C183.983 62.3957 183.911 62.348 183.832 62.3155C183.753 62.283 183.668 62.2664 183.583 62.2666C183.498 62.2668 183.413 62.2839 183.334 62.3169C183.177 62.3839 183.053 62.5103 182.989 62.6687C182.925 62.8271 182.926 63.0045 182.992 63.1622Z" fill="#425AC2"/>
<path d="M190.809 61.7488C190.798 61.8339 190.804 61.9203 190.826 62.0031C190.849 62.0859 190.888 62.1633 190.94 62.2309C190.993 62.2985 191.059 62.3549 191.133 62.3969C191.208 62.4388 191.29 62.4655 191.375 62.4753C191.461 62.4902 191.549 62.4876 191.634 62.4676C191.719 62.4476 191.799 62.4105 191.869 62.3587C191.94 62.3068 191.999 62.2413 192.043 62.166C192.087 62.0907 192.116 62.0072 192.127 61.9205C192.138 61.8354 192.132 61.749 192.109 61.6662C192.087 61.5834 192.048 61.506 191.995 61.4384C191.942 61.3708 191.877 61.3144 191.802 61.2724C191.727 61.2305 191.645 61.2039 191.56 61.1941C191.474 61.1771 191.385 61.1782 191.299 61.1975C191.214 61.2167 191.133 61.2535 191.062 61.3057C190.992 61.3579 190.933 61.4242 190.889 61.5005C190.845 61.5768 190.818 61.6613 190.809 61.7488Z" fill="#425AC2"/>
<path d="M198.23 64.4295C198.127 64.5679 198.083 64.7416 198.108 64.9125C198.133 65.0835 198.224 65.2375 198.362 65.3409C198.5 65.4442 198.674 65.4883 198.844 65.4636C199.015 65.4388 199.169 65.3471 199.272 65.2088C199.375 65.0704 199.419 64.8967 199.394 64.7258C199.37 64.5548 199.278 64.4007 199.14 64.2974C199.072 64.2462 198.994 64.2091 198.911 64.188C198.828 64.167 198.742 64.1624 198.658 64.1747C198.487 64.1995 198.334 64.2911 198.23 64.4295Z" fill="#425AC2"/>
<path d="M203.358 70.4799C203.198 70.5465 203.072 70.6736 203.007 70.8334C202.941 70.9931 202.942 71.1724 203.008 71.3318C203.075 71.4912 203.202 71.6176 203.361 71.6833C203.52 71.7489 203.699 71.7484 203.858 71.6818C203.937 71.6501 204.009 71.6028 204.069 71.5427C204.129 71.4826 204.177 71.411 204.209 71.3321C204.241 71.2532 204.257 71.1687 204.255 71.0835C204.254 70.9984 204.236 70.9144 204.201 70.8365C204.169 70.7575 204.122 70.6855 204.062 70.6247C204.003 70.564 203.932 70.5157 203.853 70.4825C203.775 70.4494 203.691 70.4321 203.606 70.4316C203.521 70.4312 203.436 70.4476 203.358 70.4799Z" fill="#425AC2"/>
<path d="M204.768 78.2847C204.683 78.2736 204.597 78.2796 204.514 78.3022C204.432 78.3249 204.355 78.3637 204.287 78.4166C204.22 78.4694 204.163 78.5352 204.121 78.6101C204.08 78.6849 204.053 78.7674 204.043 78.8526C204.024 79.0239 204.073 79.1957 204.179 79.3314C204.285 79.4671 204.44 79.556 204.61 79.5791C204.779 79.5977 204.949 79.5484 205.083 79.442C205.216 79.3356 205.302 79.1808 205.322 79.0111C205.344 78.8413 205.299 78.6694 205.195 78.5332C205.091 78.3971 204.938 78.3077 204.768 78.2847Z" fill="#425AC2"/>
<path d="M202.092 85.7615C202.025 85.7037 201.947 85.6603 201.863 85.6339C201.779 85.6075 201.69 85.5988 201.602 85.6081C201.515 85.6175 201.43 85.6448 201.353 85.6883C201.276 85.7319 201.209 85.7907 201.155 85.8613C201.102 85.9318 201.064 86.0126 201.043 86.0985C201.022 86.1845 201.019 86.2738 201.034 86.361C201.049 86.4482 201.081 86.5314 201.13 86.6055C201.178 86.6796 201.241 86.7429 201.315 86.7917C201.452 86.8941 201.624 86.939 201.793 86.9168C201.963 86.8946 202.118 86.8071 202.224 86.6728C202.276 86.6045 202.313 86.5266 202.335 86.4437C202.356 86.3607 202.36 86.2743 202.348 86.1896C202.336 86.1048 202.307 86.0233 202.263 85.9498C202.219 85.8763 202.161 85.8123 202.092 85.7615Z" fill="#425AC2"/>
<path d="M196.082 90.8859C196.013 90.7277 195.884 90.6031 195.724 90.5389C195.564 90.4747 195.385 90.476 195.225 90.5426C195.068 90.6095 194.944 90.736 194.88 90.8944C194.816 91.0528 194.817 91.2302 194.883 91.3879C194.952 91.5461 195.081 91.6707 195.241 91.7349C195.401 91.7991 195.58 91.7978 195.739 91.7313C195.896 91.6643 196.021 91.5378 196.085 91.3794C196.149 91.2211 196.148 91.0436 196.082 90.8859Z" fill="#425AC2"/>
<path d="M188.265 92.2992C188.28 92.1724 188.257 92.0442 188.199 91.9306C188.141 91.817 188.051 91.7231 187.94 91.6607C187.828 91.5983 187.701 91.5703 187.574 91.58C187.447 91.5897 187.326 91.6369 187.226 91.7154C187.126 91.794 187.051 91.9006 187.011 92.0217C186.971 92.1428 186.967 92.2731 187.001 92.3961C187.034 92.5192 187.103 92.6296 187.2 92.7134C187.296 92.7972 187.414 92.8506 187.54 92.8671C187.711 92.8859 187.883 92.837 188.018 92.7309C188.154 92.6248 188.242 92.4699 188.265 92.2992Z" fill="#425AC2"/>
<path d="M180.803 89.6565C180.856 89.589 180.894 89.5118 180.916 89.4293C180.939 89.3469 180.945 89.2608 180.934 89.1761C180.923 89.0914 180.895 89.0097 180.852 88.9357C180.809 88.8617 180.753 88.797 180.685 88.7452C180.616 88.694 180.539 88.6568 180.456 88.6358C180.373 88.6147 180.287 88.6102 180.203 88.6225C180.032 88.6472 179.878 88.7389 179.775 88.8772C179.672 89.0156 179.628 89.1893 179.653 89.3603C179.677 89.5312 179.769 89.6853 179.907 89.7886C179.974 89.8399 180.051 89.8773 180.133 89.8985C180.214 89.9196 180.299 89.9242 180.383 89.9119C180.467 89.8996 180.547 89.8706 180.619 89.8268C180.691 89.7829 180.754 89.725 180.803 89.6565Z" fill="#425AC2"/>
<path d="M175.689 83.569C175.768 83.5373 175.839 83.4899 175.9 83.4298C175.96 83.3697 176.007 83.2981 176.039 83.2192C176.071 83.1403 176.087 83.0558 176.086 82.9706C176.084 82.8855 176.066 82.8015 176.031 82.7236C176.003 82.6389 175.958 82.5609 175.898 82.4945C175.839 82.4281 175.766 82.3748 175.685 82.338C175.604 82.3011 175.516 82.2815 175.427 82.2803C175.338 82.2792 175.249 82.2965 175.167 82.3312C175.085 82.366 175.011 82.4173 174.95 82.4822C174.888 82.547 174.841 82.6238 174.811 82.7078C174.781 82.7918 174.768 82.8811 174.774 82.9702C174.78 83.0593 174.804 83.1463 174.845 83.2256C174.877 83.3046 174.924 83.3764 174.984 83.4367C175.044 83.4971 175.115 83.5447 175.194 83.5768C175.273 83.6088 175.357 83.6246 175.442 83.6233C175.527 83.6219 175.611 83.6035 175.689 83.569Z" fill="#425AC2"/>
<path d="M174.279 75.7631C174.364 75.7741 174.45 75.7681 174.532 75.7455C174.615 75.7228 174.692 75.684 174.76 75.6311C174.827 75.5783 174.884 75.5125 174.925 75.4376C174.967 75.3628 174.994 75.2803 175.004 75.1951C175.014 75.1083 175.007 75.0204 174.984 74.9363C174.96 74.8522 174.92 74.7736 174.867 74.7049C174.813 74.6362 174.746 74.5788 174.67 74.536C174.594 74.4932 174.51 74.4658 174.424 74.4554C174.337 74.445 174.249 74.4518 174.165 74.4754C174.081 74.4989 174.003 74.5389 173.934 74.5928C173.866 74.6468 173.809 74.7138 173.766 74.7899C173.723 74.866 173.696 74.9499 173.686 75.0366C173.675 75.1237 173.681 75.2121 173.706 75.2965C173.73 75.3809 173.771 75.4595 173.826 75.5275C173.882 75.5954 173.951 75.6513 174.028 75.6918C174.106 75.7323 174.191 75.7566 174.279 75.7631Z" fill="#425AC2"/>
<path d="M176.954 68.2999C177.057 68.3757 177.18 68.4194 177.307 68.4255C177.434 68.4316 177.56 68.3998 177.67 68.3342C177.779 68.2686 177.866 68.1721 177.921 68.0568C177.976 67.9415 177.995 67.8126 177.977 67.6862C177.959 67.5599 177.904 67.4417 177.818 67.3467C177.733 67.2517 177.622 67.1841 177.499 67.1522C177.375 67.1204 177.245 67.1259 177.125 67.168C177.005 67.21 176.899 67.2868 176.823 67.3886C176.722 67.5278 176.679 67.7009 176.704 67.8711C176.728 68.0413 176.818 68.1951 176.954 68.2999Z" fill="#425AC2"/>
<path d="M194.088 69.707L188.979 75.9805L190.021 76.8321L195.129 70.5586L194.088 69.707Z" fill="#425AC2"/>
<path d="M177.138 75.0291L177.033 76.0273L189.12 77.3066L189.225 76.3083L177.138 75.0291Z" fill="#425AC2"/>
<path d="M186.683 78.219C186.907 78.7927 187.297 79.2862 187.803 79.6362C188.309 79.9863 188.908 80.1769 189.522 80.1837C190.137 80.1905 190.74 80.013 191.253 79.6742C191.766 79.3353 192.167 78.8505 192.403 78.2819C192.64 77.7133 192.701 77.0869 192.58 76.4831C192.459 75.8793 192.16 75.3255 191.722 74.8929C191.285 74.4604 190.728 74.1686 190.124 74.0553C189.52 73.9419 188.895 74.012 188.331 74.2566C187.598 74.5746 187.016 75.1653 186.709 75.9044C186.401 76.6435 186.392 77.4733 186.683 78.219Z" fill="#FE958E"/>
<path d="M188.502 53.6786C188.516 53.2738 188.569 52.8713 188.66 52.4767C189.055 50.6761 190.148 49.1066 191.698 48.1133C193.248 47.12 195.128 46.7844 196.925 47.1802C198.722 47.5761 200.289 48.671 201.28 50.224C202.272 51.7771 202.606 53.6612 202.211 55.4617C202.122 55.8635 201.999 56.2568 201.842 56.6373L188.502 53.6786Z" fill="#425AC2"/>
<path d="M128.246 183.817H87.157L88.2511 271.771H96.0945C96.0945 271.771 102.04 227.523 104.267 203.088H109.712L111.346 271.771H119.256C119.256 271.771 128.483 202.784 128.259 189.484C128.358 187.596 128.354 185.704 128.246 183.817Z" fill="#A4B8EA"/>
<path d="M128.247 183.819H87.158L82.017 129.124C81.5688 124.673 85.8662 120.842 91.3368 120.842H124.055C129.526 120.842 133.836 124.673 133.375 129.124L128.247 183.819Z" fill="#0E24A5"/>
<path d="M105.744 130.907C105.864 131.218 106.073 131.488 106.344 131.682C106.615 131.876 106.937 131.987 107.269 132.001C107.602 132.015 107.932 131.932 108.218 131.761C108.505 131.59 108.735 131.339 108.881 131.039C110.714 127.288 114.734 121.675 114.734 120.473V112.403C114.734 110.567 112.005 110.725 110.397 110.725H105.124C103.516 110.725 100.787 112.204 100.787 114.04V120.473C100.84 121.661 104.294 127.156 105.744 130.907Z" fill="#E98896"/>
<path d="M101.948 115.729C107.379 120.749 112.151 119.124 115.895 112.744C120.338 105.163 121.854 96.8947 116.422 91.9284C115.227 90.7354 113.798 89.8024 112.226 89.1876C110.654 88.5727 108.973 88.2893 107.287 88.355C105.6 88.4207 103.946 88.8341 102.426 89.5694C100.907 90.3047 99.5549 91.346 98.4551 92.6284C93.4591 98.0702 96.5174 110.79 101.948 115.729Z" fill="#FFA6AD"/>
<path d="M99.1262 135.146L69.7299 147.272C68.3836 147.824 66.9029 147.96 65.4789 147.661C64.0549 147.362 62.7531 146.642 61.7415 145.594L35.3772 118.385L40.4919 112.574L66.118 132.082C66.118 132.082 81.5148 122.836 87.6841 121.212C90.4391 120.499 97.2807 127.922 97.2807 127.922L99.1262 135.146Z" fill="#0E24A5"/>
<path d="M88.1323 271.652H96.1207V277.78H79.933C78.8653 277.78 78.4961 275.377 79.4321 274.861L88.1323 271.652Z" fill="#112256"/>
<path d="M119.361 271.652H111.385V277.78H127.534C128.601 277.78 128.971 275.377 128.035 274.861L119.361 271.652Z" fill="#112256"/>
<mask id="mask0_2_12165" style="mask-type:alpha" maskUnits="userSpaceOnUse" x="87" y="183" width="42" height="89">
<path d="M128.246 183.818H87.1572L88.2514 271.772H96.0947C96.0947 271.772 102.04 227.524 104.268 203.089H109.712L111.347 271.772H119.256C119.256 271.772 128.483 202.785 128.259 189.485C128.359 187.597 128.354 185.705 128.246 183.818Z" fill="#A4B8EA"/>
</mask>
<g mask="url(#mask0_2_12165)">
<path d="M91.929 174.388H90.2417V281.189H91.929V174.388Z" fill="#03053F"/>
<path d="M96.5689 174.388H94.8816V281.189H96.5689V174.388Z" fill="#03053F"/>
<path d="M101.209 174.388H99.522V281.189H101.209V174.388Z" fill="#03053F"/>
<path d="M105.862 174.388H104.175V281.189H105.862V174.388Z" fill="#03053F"/>
<path d="M110.503 174.388H108.815V281.189H110.503V174.388Z" fill="#03053F"/>
<path d="M115.143 174.388H113.456V281.189H115.143V174.388Z" fill="#03053F"/>
<path d="M119.796 174.388H118.109V281.189H119.796V174.388Z" fill="#03053F"/>
<path d="M124.436 174.388H122.749V281.189H124.436V174.388Z" fill="#03053F"/>
</g>
<path d="M128.273 183.817H87.1443V186.736H128.273V183.817Z" fill="#FFC1C1"/>
<path d="M40.532 112.573C40.532 112.573 41.9425 105.968 40.3475 105.968C38.7524 105.968 38.2251 109.865 37.5397 110.076C36.0105 110.552 33.9541 108.372 31.6604 106.431C29.3667 104.489 25.5834 104.78 25.7416 106.787C26.0316 110.671 35.4173 118.424 35.4173 118.424L40.532 112.573Z" fill="#E98896"/>
<path d="M115.881 135.146L145.277 147.272C146.623 147.824 148.104 147.96 149.528 147.661C150.952 147.362 152.254 146.642 153.265 145.594L179.63 118.385L174.515 112.574L148.889 132.082C148.889 132.082 133.492 122.836 127.336 121.212C124.568 120.499 117.739 127.922 117.739 127.922L115.881 135.146Z" fill="#0E24A5"/>
<path d="M174.475 112.573C174.475 112.573 173.078 105.968 174.66 105.968C176.242 105.968 176.782 109.865 177.481 110.076C178.997 110.552 181.053 108.372 183.347 106.431C185.641 104.489 189.424 104.78 189.279 106.787C188.976 110.671 179.59 118.424 179.59 118.424L174.475 112.573Z" fill="#E98896"/>
<path d="M54.5842 182.761C54.5842 183.806 54.8935 184.828 55.4728 185.697C56.0522 186.565 56.8758 187.243 57.8393 187.642C58.8028 188.042 59.863 188.147 60.8858 187.943C61.9086 187.739 62.8482 187.236 63.5856 186.497C64.323 185.758 64.8252 184.817 65.0286 183.792C65.2321 182.767 65.1277 181.705 64.7286 180.739C64.3295 179.774 63.6537 178.949 62.7866 178.368C61.9194 177.788 60.9 177.478 59.8571 177.478C58.4586 177.478 57.1175 178.035 56.1286 179.025C55.1398 180.016 54.5842 181.36 54.5842 182.761ZM56.4825 182.761C56.4799 182.082 56.6786 181.416 57.0536 180.85C57.4286 180.283 57.9631 179.841 58.5891 179.579C59.2151 179.317 59.9046 179.247 60.5704 179.378C61.2361 179.509 61.848 179.835 62.3286 180.315C62.8093 180.795 63.137 181.407 63.2704 182.073C63.4037 182.74 63.3366 183.431 63.0775 184.059C62.8185 184.687 62.3792 185.225 61.8153 185.603C61.2514 185.98 60.5883 186.182 59.9098 186.182C59.0031 186.182 58.1333 185.822 57.491 185.181C56.8486 184.54 56.486 183.67 56.4825 182.761Z" fill="#FE958E"/>
<path d="M61.1622 172.736H43.5376L46.899 192.073H57.8007L61.1622 172.736Z" fill="#FE958E"/>
<path d="M144.011 188.15H182.516L187.789 164.27H149.297L144.011 188.15Z" fill="#BBBBBB"/>
<path d="M182.544 187.992H134.587V192.06H182.544V187.992Z" fill="#BBBBBB"/>
<path d="M164.128 176.831C164.128 177.333 164.277 177.823 164.555 178.24C164.833 178.657 165.228 178.982 165.691 179.174C166.153 179.366 166.662 179.416 167.153 179.319C167.644 179.221 168.095 178.979 168.449 178.625C168.803 178.27 169.044 177.818 169.141 177.326C169.239 176.834 169.189 176.324 168.997 175.861C168.806 175.398 168.482 175.001 168.065 174.723C167.649 174.444 167.16 174.295 166.659 174.295C166.327 174.295 165.998 174.361 165.691 174.488C165.384 174.616 165.104 174.803 164.869 175.038C164.634 175.274 164.448 175.553 164.321 175.861C164.194 176.169 164.128 176.498 164.128 176.831Z" fill="#4E687F"/>
<path d="M101.948 115.729C107.379 120.749 112.151 119.124 115.895 112.744C120.338 105.163 121.854 96.8947 116.422 91.9284C115.227 90.7354 113.798 89.8024 112.226 89.1876C110.654 88.5727 108.973 88.2893 107.287 88.355C105.6 88.4207 103.946 88.8341 102.426 89.5694C100.907 90.3047 99.5549 91.346 98.4551 92.6284C93.4591 98.0702 96.5174 110.79 101.948 115.729Z" fill="#E98896"/>
<path d="M96.2534 111.068C95.1988 108.241 95.4361 102.099 98.6394 102.694C101.012 103.13 98.8108 106.392 100.92 106.749C103.029 107.105 98.7185 96.9614 104.097 94.399C109.212 91.9555 114.643 93.4216 115.012 99.6823C115.328 105.322 113.245 107.435 115.012 107.435C116.778 107.435 115.012 103.552 118.175 103.909C121.339 104.266 121.352 112.032 123.106 112.032C124.859 112.032 123.817 87.3327 123.817 87.3327L98.4549 83.0532L91.7715 97.1728L96.2534 111.068Z" fill="#425AC2"/>
</g>
<defs>
<filter id="filter0_d_2_12165" x="0" y="0" width="216.644" height="285.78" filterUnits="userSpaceOnUse" color-interpolation-filters="sRGB">
<feFlood flood-opacity="0" result="BackgroundImageFix"/>
<feColorMatrix in="SourceAlpha" type="matrix" values="0 0 0 0 0 0 0 0 0 0 0 0 0 0 0 0 0 0 127 0" result="hardAlpha"/>
<feOffset dy="4"/>
<feGaussianBlur stdDeviation="2"/>
<feComposite in2="hardAlpha" operator="out"/>
<feColorMatrix type="matrix" values="0 0 0 0 0 0 0 0 0 0 0 0 0 0 0 0 0 0 0.25 0"/>
<feBlend mode="normal" in2="BackgroundImageFix" result="effect1_dropShadow_2_12165"/>
<feBlend mode="normal" in="SourceGraphic" in2="effect1_dropShadow_2_12165" result="shape"/>
</filter>
</defs>
</svg>
